<?xml version="1.0" encoding="UTF-8" standalone="no"?><!-- Generator: Gravit.io --><svg xmlns="http://www.w3.org/2000/svg" xmlns:xlink="http://www.w3.org/1999/xlink" style="isolation:isolate" viewBox="319 230 512 512" width="512pt" height="512pt"><defs><clipPath id="_clipPath_dyj5RUH5oHVaVKEnsrlYZhNWmiV6JNS4"><rect x="319" y="230" width="512" height="512"/></clipPath></defs><g clip-path="url(#_clipPath_dyj5RUH5oHVaVKEnsrlYZhNWmiV6JNS4)"><linearGradient id="_lgradient_3" x1="0.4911221590909092" y1="0.6227805397727273" x2="0.5069217064714948" y2="1.6678077450885984" gradientTransform="matrix(512,0,0,512,319,230)" gradientUnits="userSpaceOnUse"><stop offset="0%" stop-opacity="1" style="stop-color:rgb(40,42,54)"/><stop offset="98.33333333333333%" stop-opacity="1" style="stop-color:rgb(189,147,249)"/></linearGradient><rect x="319" y="230" width="512" height="512" transform="matrix(1,0,0,1,0,0)" fill="url(#_lgradient_3)"/><g><g><linearGradient id="_lgradient_4" x1="0.3077210780026498" y1="0.7547481420313792" x2="0.8158069212377469" y2="0.21965317919075156" gradientTransform="matrix(325,0,0,188.296,412.5,391.852)" gradientUnits="userSpaceOnUse"><stop offset="0%" stop-opacity="1" style="stop-color:rgb(227,0,64)"/><stop offset="100%" stop-opacity="1" style="stop-color:rgb(227,6,117)"/></linearGradient><path d=" M 561.835 415.82 C 560.717 417.042 557.1 402.68 557.1 402.68 C 557.1 402.68 559.136 437.571 551.561 441.237 C 542.909 445.406 503.863 430.705 503.721 419.241 C 503.594 407.795 520.643 392.158 520.817 391.856 C 520.991 391.553 407.251 410.61 412.689 515.093 C 414.388 513.136 486.878 442.306 488.761 553.859 C 491.327 550.387 545.398 474.105 574.582 580.148 C 575.255 572.637 596.286 469.926 655.151 554.62 C 654.729 549.225 651.289 445.244 737.29 516.059 C 737.311 510.631 747.3 427.576 626.733 391.859 C 631.557 395.166 647.152 403.967 640.402 415.822 C 633.642 427.687 622.809 443.805 596.266 441.922 C 588.277 440.952 589.472 406.624 589.715 402.682 C 589.715 402.682 586.605 416.795 585.764 415.822 C 582.882 412.615 566.5 410.651 561.835 415.82 Z " fill="url(#_lgradient_4)"/></g></g></g></svg>