<?xml version="1.0" encoding="UTF-8" standalone="no"?><!-- Generator: Gravit.io --><svg xmlns="http://www.w3.org/2000/svg" xmlns:xlink="http://www.w3.org/1999/xlink" style="isolation:isolate" viewBox="1552 831.362 512 296.638" width="512pt" height="296.638pt"><defs><clipPath id="_clipPath_2De4aXiyzYe4jEE4G7zuZ7ik9UWhglRj"><rect x="1552" y="831.362" width="512" height="296.638"/></clipPath></defs><g clip-path="url(#_clipPath_2De4aXiyzYe4jEE4G7zuZ7ik9UWhglRj)"><g><g><linearGradient id="_lgradient_0" x1="0.3077210780026498" y1="0.7547481420313792" x2="0.8158069212377469" y2="0.21965317919075156" gradientTransform="matrix(512,0,0,296.638,1552,831.362)" gradientUnits="userSpaceOnUse"><stop offset="0%" stop-opacity="1" style="stop-color:rgb(227,0,64)"/><stop offset="100%" stop-opacity="1" style="stop-color:rgb(227,6,117)"/></linearGradient><path d=" M 1787.26 869.121 C 1785.5 871.045 1779.801 848.42 1779.801 848.42 C 1779.801 848.42 1783.009 903.387 1771.075 909.163 C 1757.444 915.729 1695.932 892.57 1695.708 874.51 C 1695.508 856.478 1722.367 831.844 1722.641 831.368 C 1722.915 830.891 1543.73 860.912 1552.298 1025.513 C 1554.975 1022.431 1669.174 910.846 1672.141 1086.584 C 1676.184 1081.115 1761.366 960.941 1807.342 1128 C 1808.401 1116.167 1841.534 954.358 1934.269 1087.783 C 1933.604 1079.284 1928.184 915.475 2063.67 1027.035 C 2063.703 1018.484 2079.439 887.641 1889.5 831.373 C 1897.098 836.582 1921.667 850.448 1911.033 869.124 C 1900.383 887.816 1883.317 913.208 1841.501 910.241 C 1828.916 908.714 1830.799 854.633 1831.182 848.423 C 1831.182 848.423 1826.283 870.657 1824.958 869.124 C 1820.417 864.071 1794.609 860.978 1787.26 869.121 Z " fill="url(#_lgradient_0)"/></g></g></g></svg>